<svg id="Layer_1" data-name="Layer 1" xmlns="http://www.w3.org/2000/svg" viewBox="0 0 2037.88 2037.88"><path d="M798.9,1013q-5.92,11-18.54,17.64t-31.82,6.7H722.41v59.85H691.15V941.34h57.39q18.09,0,30.82,6.26t19.09,17.19a50.48,50.48,0,0,1,.45,48.23Zm-32.49-6.81q6.24-5.91,6.25-16.63,0-22.79-25.46-22.78H722.41v45.33H747.2Q760.15,1012.13,766.41,1006.21Z"/><path d="M911.66,1067.51H849.59l-10.28,29.7H806.49l56-156.09h36.4l56,156.09h-33Zm-8.48-25-22.56-65.21-22.55,65.21Z"/><path d="M1119.49,1097.21h-31.27l-70.78-107v107H986.17V941.12h31.27l70.78,107.18V941.12h31.27Z"/><path d="M1204.89,1088.5a76.73,76.73,0,0,1-29-28.47q-10.72-18.19-10.72-41.2,0-22.79,10.72-41a76.73,76.73,0,0,1,29-28.47,84,84,0,0,1,80.5,0,76.23,76.23,0,0,1,28.81,28.47q10.6,18.21,10.6,41,0,23-10.6,41.2a76,76,0,0,1-28.92,28.47,83.79,83.79,0,0,1-80.39,0Zm65-24a43.53,43.53,0,0,0,16.75-18.2q6-11.82,6-27.46t-6-27.36a43,43,0,0,0-16.75-18q-10.71-6.25-24.79-6.25a48.87,48.87,0,0,0-24.89,6.25,42.79,42.79,0,0,0-16.86,18q-6,11.73-6,27.36t6,27.46a43.27,43.27,0,0,0,16.86,18.2,48.15,48.15,0,0,0,24.89,6.37Q1259.15,1070.86,1269.87,1064.49Z"/><path d="M1444.35,1097.21,1410,1036.47h-14.73v60.74H1364V941.34h58.51q18.09,0,30.81,6.37t19.1,17.19a47,47,0,0,1,6.36,24.23,46.43,46.43,0,0,1-8.93,27.8q-8.94,12.39-26.57,17.08l37.29,63.2ZM1395.23,1013h26.12q12.74,0,19-6.14t6.26-17.08q0-10.72-6.26-16.64t-19-5.91h-26.12Z"/><path d="M1611.73,1067.51h-62.08l-10.27,29.7h-32.83l56-156.09H1599l56,156.09h-33Zm-8.49-25-22.55-65.21-22.56,65.21Z"/><path d="M517.29,862.93H406.12a22.93,22.93,0,0,0-22.93,22.93L383,922.47h0v2.33l89.15-49,15.58,28.36L382.83,961.72v32.17l153.35-84.24L551.76,938l-168.93,92.8v33.53L589.11,951.66,604.69,980,458.82,1059.7l-2.7,1.47-73.29,40,.36,73.75h46.07a23.58,23.58,0,0,0,23.58-23.58v-53.43a20.49,20.49,0,0,1,20.49-20.5h44A107.25,107.25,0,0,0,624.54,970.19h0A107.26,107.26,0,0,0,517.29,862.93Z"/></svg>